<?xml version="1.0" encoding="utf-8"?>
<!-- Generator: Adobe Illustrator 19.1.0, SVG Export Plug-In . SVG Version: 6.00 Build 0)  -->
<svg version="1.1" id="Layer_1" xmlns="http://www.w3.org/2000/svg" xmlns:xlink="http://www.w3.org/1999/xlink" x="0px" y="0px"
	 viewBox="0 0 100 100" width="100" height="100" style="enable-background:new 0 0 100 100;" xml:space="preserve"  preserveAspectRatio="xMidYMid">
<style type="text/css">
	.st0{clip-path:url(#SVGID_2_);fill:#C1282D;}
	.st1{clip-path:url(#SVGID_2_);}
	.st2{clip-path:url(#SVGID_4_);fill:#FFFFFF;}
</style>
<g>
	<g>
		<defs>
			<rect id="SVGID_1_" width="100" height="100"/>
		</defs>
		<clipPath id="SVGID_2_">
			<use xlink:href="#SVGID_1_"  style="overflow:visible;"/>
		</clipPath>
		<rect class="st0" width="100" height="100"/>
		<g class="st1">
			<defs>
				<rect id="SVGID_3_" width="100" height="100"/>
			</defs>
			<clipPath id="SVGID_4_">
				<use xlink:href="#SVGID_3_"  style="overflow:visible;"/>
			</clipPath>
			<path class="st2" d="M48.4,36.3C48.3,30.4,44.5,25,36.9,25H24.7l0,49.7l7.5-0.1l0-18.9c0,0,3.5,0,4.9,0c5.8,0,11.3-5.2,11.3-11.5
				C48.4,40.6,48.4,37.5,48.4,36.3 M36.9,49H32V33h4.9c2.5,0,4.2,1.3,4.2,3.9c0,0.5,0,7.1,0,7.6C41.1,47,39,49,36.9,49"/>
			<path class="st2" d="M67.9,25H57.5l-8.5,50h7.9l1.8-11h7.9l1.8,11h7.9L67.9,25z M59.9,56l2.8-19.6L65.5,56H59.9z"/>
		</g>
	</g>
</g>
<g>
</g>
<g>
</g>
<g>
</g>
<g>
</g>
<g>
</g>
<g>
</g>
<g>
</g>
<g>
</g>
<g>
</g>
<g>
</g>
<g>
</g>
<g>
</g>
<g>
</g>
<g>
</g>
<g>
</g>
</svg>
